<?xml version="1.0" encoding="UTF-8" standalone="no"?><!-- Generator: Gravit.io --><svg xmlns="http://www.w3.org/2000/svg" xmlns:xlink="http://www.w3.org/1999/xlink" style="isolation:isolate" viewBox="0 0 60 60" width="60pt" height="60pt"><defs><clipPath id="_clipPath_OwuHMGHi9XvUW9yQP1Kg89qi1gnzOdeq"><rect width="60" height="60"/></clipPath></defs><g clip-path="url(#_clipPath_OwuHMGHi9XvUW9yQP1Kg89qi1gnzOdeq)"><g/><g/><g/><g><path d=" M 42.664 25.083 L 42.664 25.083 L 42.664 25.083 L 42.664 23.059 L 42.664 23.059 L 42.664 20.688 C 42.664 20.404 42.702 20.128 42.773 19.865 L 42.773 19.027 C 42.773 17.552 41.576 16.355 40.102 16.355 L 36.827 16.355 L 36.827 16.355 L 34.047 16.355 C 34.047 16.355 34.047 16.355 34.047 16.355 L 34.047 33.809 L 34.047 33.809 L 34.047 33.809 L 34.047 33.809 L 34.047 35 C 34.047 35 34.047 35 34.047 35 L 34.127 35 C 34.709 39.254 38.361 42.535 42.773 42.535 L 42.773 42.535 C 47.186 42.535 50.837 39.254 51.419 35 L 45.806 35 C 44.072 35 42.664 33.592 42.664 31.858 L 42.664 25.083 Z  M 38.355 26.283 L 38.355 26.283 L 38.355 24.973 L 38.355 24.973 L 38.355 26.283 L 38.355 26.283 Z " fill-rule="evenodd" fill="rgb(255,152,0)"/><g><rect x="21.611" y="20.719" width="8.509" height="21.817" transform="matrix(1,0,0,1,0,0)" fill="rgb(255,152,0)"/><rect x="8.5" y="23.5" width="8.509" height="19.035" transform="matrix(1,0,0,1,0,0)" fill="rgb(255,152,0)"/><rect x="8.5" y="16.355" width="17.365" height="8.727" transform="matrix(1,0,0,1,0,0)" fill="rgb(255,152,0)"/><path d="M 25.865 16.36 L 25.865 16.36 C 28.213 16.36 30.12 18.265 30.12 20.611 L 30.12 20.829 C 30.12 23.175 28.213 25.08 25.865 25.08 L 25.865 25.08 C 23.517 25.08 21.61 23.175 21.61 20.829 L 21.61 20.611 C 21.61 18.265 23.517 16.36 25.865 16.36 Z" style="stroke:none;fill:#FF9800;stroke-miterlimit:10;"/></g></g></g></svg>