<?xml version="1.0" encoding="UTF-8" standalone="no"?><!-- Generator: Gravit.io --><svg xmlns="http://www.w3.org/2000/svg" xmlns:xlink="http://www.w3.org/1999/xlink" style="isolation:isolate" viewBox="0 0 30 30" width="30pt" height="30pt"><defs><clipPath id="_clipPath_GbWBmFt88czIfGvJQ3tL6if4mAUOFvMQ"><rect width="30" height="30"/></clipPath></defs><g clip-path="url(#_clipPath_GbWBmFt88czIfGvJQ3tL6if4mAUOFvMQ)"><g/><g/><g/><g><mask id="_mask_A30NHJWyKIGuTBhyBQXzTDATl0hpQemy"><path d=" M 27.624 17.743 C 27.272 20.316 25.063 22.301 22.395 22.301 L 22.395 22.301 C 19.726 22.301 17.518 20.316 17.166 17.743 L 17.117 17.743 C 17.117 17.743 17.117 17.743 17.117 17.743 L 17.117 17.023 L 17.117 17.023 L 17.117 17.023 L 17.117 17.023 L 17.117 6.467 C 17.117 6.467 17.117 6.467 17.117 6.467 L 18.799 6.467 L 18.799 6.467 L 20.779 6.467 C 21.671 6.467 22.395 7.191 22.395 8.083 L 22.395 8.914 L 22.395 9.088 L 22.395 9.088 L 22.395 11.745 L 22.395 15.843 C 22.395 16.892 23.246 17.743 24.295 17.743 L 27.624 17.743 Z  M 19.723 12.471 L 19.723 12.471 L 19.723 11.679 L 19.723 11.679 L 19.723 12.471 L 19.723 12.471 Z " fill-rule="evenodd" fill="white" stroke="none"/></mask><path d=" M 27.624 17.743 C 27.272 20.316 25.063 22.301 22.395 22.301 L 22.395 22.301 C 19.726 22.301 17.518 20.316 17.166 17.743 L 17.117 17.743 C 17.117 17.743 17.117 17.743 17.117 17.743 L 17.117 17.023 L 17.117 17.023 L 17.117 17.023 L 17.117 17.023 L 17.117 6.467 C 17.117 6.467 17.117 6.467 17.117 6.467 L 18.799 6.467 L 18.799 6.467 L 20.779 6.467 C 21.671 6.467 22.395 7.191 22.395 8.083 L 22.395 8.914 L 22.395 9.088 L 22.395 9.088 L 22.395 11.745 L 22.395 15.843 C 22.395 16.892 23.246 17.743 24.295 17.743 L 27.624 17.743 Z  M 19.723 12.471 L 19.723 12.471 L 19.723 11.679 L 19.723 11.679 L 19.723 12.471 L 19.723 12.471 Z " fill-rule="evenodd" fill="rgb(255,152,0)"/><path d=" M 27.624 17.743 C 27.272 20.316 25.063 22.301 22.395 22.301 L 22.395 22.301 C 19.726 22.301 17.518 20.316 17.166 17.743 L 17.117 17.743 C 17.117 17.743 17.117 17.743 17.117 17.743 L 17.117 17.023 L 17.117 17.023 L 17.117 17.023 L 17.117 17.023 L 17.117 6.467 C 17.117 6.467 17.117 6.467 17.117 6.467 L 18.799 6.467 L 18.799 6.467 L 20.779 6.467 C 21.671 6.467 22.395 7.191 22.395 8.083 L 22.395 8.914 L 22.395 9.088 L 22.395 9.088 L 22.395 11.745 L 22.395 15.843 C 22.395 16.892 23.246 17.743 24.295 17.743 L 27.624 17.743 Z  M 19.723 12.471 L 19.723 12.471 L 19.723 11.679 L 19.723 11.679 L 19.723 12.471 L 19.723 12.471 Z " fill-rule="evenodd" fill="rgb(255,152,0)" mask="url(#_mask_A30NHJWyKIGuTBhyBQXzTDATl0hpQemy)" vector-effect="non-scaling-stroke" stroke-width="2" stroke="rgb(255,152,0)" stroke-linejoin="miter" stroke-linecap="square" stroke-miterlimit="3"/><g><mask id="_mask_pH0lQFejKzpEYzJjt4JnHcNnFjMZvcmU"><rect x="9.596" y="9.106" width="5.146" height="13.195" fill="white" stroke="none"/></mask><rect x="9.596" y="9.106" width="5.146" height="13.195" transform="matrix(1,0,0,1,0,0)" fill="rgb(255,152,0)"/><rect x="9.596" y="9.106" width="5.146" height="13.195" transform="matrix(1,0,0,1,0,0)" fill="rgb(255,152,0)" mask="url(#_mask_pH0lQFejKzpEYzJjt4JnHcNnFjMZvcmU)" vector-effect="non-scaling-stroke" stroke-width="2" stroke="rgb(255,152,0)" stroke-linejoin="miter" stroke-linecap="square" stroke-miterlimit="2"/><mask id="_mask_fqqPe27rfVp9mN30UVjEkkCHyGaJGRnB"><rect x="1.667" y="6.467" width="5.146" height="15.833" fill="white" stroke="none"/></mask><rect x="1.667" y="6.467" width="5.146" height="15.833" transform="matrix(1,0,0,1,0,0)" fill="rgb(255,152,0)"/><rect x="1.667" y="6.467" width="5.146" height="15.833" transform="matrix(1,0,0,1,0,0)" fill="rgb(255,152,0)" mask="url(#_mask_fqqPe27rfVp9mN30UVjEkkCHyGaJGRnB)" vector-effect="non-scaling-stroke" stroke-width="2" stroke="rgb(255,152,0)" stroke-linejoin="miter" stroke-linecap="square" stroke-miterlimit="2"/><mask id="_mask_kuef5ZD89W6iVRAmVmatZ43zEEDkOanf"><rect x="1.667" y="6.467" width="10.502" height="5.278" fill="white" stroke="none"/></mask><rect x="1.667" y="6.467" width="10.502" height="5.278" transform="matrix(1,0,0,1,0,0)" fill="rgb(255,152,0)"/><rect x="1.667" y="6.467" width="10.502" height="5.278" transform="matrix(1,0,0,1,0,0)" fill="rgb(255,152,0)" mask="url(#_mask_kuef5ZD89W6iVRAmVmatZ43zEEDkOanf)" vector-effect="non-scaling-stroke" stroke-width="2" stroke="rgb(255,152,0)" stroke-linejoin="miter" stroke-linecap="square" stroke-miterlimit="2"/><path d="M 12.17 6.47 L 12.17 6.47 C 13.588 6.47 14.74 7.621 14.74 9.039 L 14.74 9.171 C 14.74 10.589 13.588 11.74 12.17 11.74 L 12.17 11.74 C 10.752 11.74 9.6 10.589 9.6 9.171 L 9.6 9.039 C 9.6 7.621 10.752 6.47 12.17 6.47 Z" style="stroke:none;fill:#FF9800;stroke-miterlimit:10;"/><path d="M 12.17 6.47 L 12.17 6.47 C 13.588 6.47 14.74 7.621 14.74 9.039 L 14.74 9.171 C 14.74 10.589 13.588 11.74 12.17 11.74 L 12.17 11.74 C 10.752 11.74 9.6 10.589 9.6 9.171 L 9.6 9.039 C 9.6 7.621 10.752 6.47 12.17 6.47 Z" style="fill:none;stroke:#000000;stroke-width:2;stroke-linecap:square;stroke-miterlimit:2;"/></g></g></g></svg>