<?xml version="1.0" encoding="UTF-8" standalone="no"?><!-- Generator: Gravit.io --><svg xmlns="http://www.w3.org/2000/svg" xmlns:xlink="http://www.w3.org/1999/xlink" style="isolation:isolate" viewBox="0 0 350 300" width="350pt" height="300pt"><defs><clipPath id="_clipPath_EJG9jpALaRGLsMNMV87PComcCCJWygke"><rect width="350" height="300"/></clipPath></defs><g clip-path="url(#_clipPath_EJG9jpALaRGLsMNMV87PComcCCJWygke)"><g/><g/><g/><g><path d=" M 255.644 127.507 C 255.548 127.507 255.452 127.508 255.356 127.509 L 255.356 127.509 L 255.356 125.894 C 254.901 123.037 254.664 120.108 254.664 117.123 L 254.664 117.123 C 254.664 114.139 254.901 111.209 255.356 108.352 L 255.356 89.091 C 255.356 74.002 243.106 61.751 228.016 61.751 L 228.016 61.751 L 228.016 61.751 L 228.016 61.751 L 228.016 61.751 L 228.016 61.751 L 228.016 61.751 L 200.676 61.751 C 200.676 61.751 200.676 61.751 200.676 61.751 L 200.676 89.091 L 200.676 89.091 L 200.676 89.091 L 200.676 89.091 L 200.676 182.877 C 200.676 182.877 200.676 182.877 200.676 182.877 L 200.676 182.877 L 200.676 182.877 C 200.676 213.437 225.488 238.249 256.048 238.249 L 256.048 238.249 C 286.609 238.249 311.42 213.437 311.42 182.877 L 311.42 182.877 C 311.42 179.327 311.085 175.854 310.44 172.491 C 310.305 172.494 310.171 172.495 310.036 172.495 L 310.036 172.495 C 283.025 172.495 260.505 153.112 255.644 127.507 Z  M 228.016 135.125 L 228.016 135.125 L 228.016 116.431 L 228.016 116.431 L 228.016 116.431 L 228.016 116.431 L 228.016 116.431 L 228.016 135.125 L 228.016 135.125 Z " fill-rule="evenodd" fill="rgb(255,152,0)"/><path d=" M 38.58 117.123 L 38.58 118.795 L 38.58 118.795 L 38.58 229.538 L 92.567 229.538 L 92.567 118.795 L 121.772 118.795 L 121.772 118.795 L 121.772 229.538 L 175.759 229.538 L 175.759 91.109 L 175.759 91.109 L 175.759 91.109 C 175.759 75.828 163.664 63.423 148.765 63.423 L 148.765 63.423 L 148.765 63.423 L 148.765 63.423 L 93.998 63.423 C 92.364 93.343 68.158 117.123 38.58 117.123 Z " fill-rule="evenodd" fill="rgb(255,152,0)"/></g></g></svg>