<?xml version="1.0" encoding="UTF-8" standalone="no"?><!-- Generator: Gravit.io --><svg xmlns="http://www.w3.org/2000/svg" xmlns:xlink="http://www.w3.org/1999/xlink" style="isolation:isolate" viewBox="0 0 30 30" width="30pt" height="30pt"><defs><clipPath id="_clipPath_mLQJ0GmLXMSQ1GuNUS3og6VbMHLmqWRf"><rect width="30" height="30"/></clipPath></defs><g clip-path="url(#_clipPath_mLQJ0GmLXMSQ1GuNUS3og6VbMHLmqWRf)"><g><path d=" M 12.379 7.145 L 11.991 7.145 L 2.298 7.145 L 2.298 22.855 L 6.754 22.855 L 6.754 11.727 L 10.15 11.727 L 10.15 22.855 L 14.605 22.855 L 14.605 9.763 L 14.605 9.763 L 14.605 9.763 L 14.594 9.763 L 14.594 9.763 L 14.605 9.763 L 14.609 9.763 L 14.609 9.497 L 14.609 9.374 C 14.609 8.144 13.61 7.145 12.379 7.145 L 14.605 7.145 L 11.991 7.145 L 11.991 7.178 L 11.991 9.763 L 12.379 7.145 Z  M 12.379 7.145 L 14.609 7.145 L 12.379 7.145 Z  M 20.767 7.145 L 20.767 7.145 C 21.997 7.145 22.997 8.144 22.997 9.374 L 22.997 9.497 C 22.997 10.728 21.997 11.727 20.767 11.727 L 20.767 11.727 C 19.536 11.727 18.537 10.728 18.537 9.497 L 18.537 9.374 C 18.537 8.144 19.536 7.145 20.767 7.145 L 20.767 7.145 Z " fill-rule="evenodd" fill="rgb(255,152,0)"/><path d=" M 20.828 9.763 L 23.119 9.763 L 23.119 18.142 L 18.537 18.142 L 18.537 12.643 L 18.537 9.763 L 18.537 7.145 L 20.828 7.145 L 20.828 9.763 Z " fill-rule="evenodd" fill="rgb(255,152,0)"/><path d="M 12.38 7.14 L 12.38 7.14 C 13.611 7.14 14.61 8.141 14.61 9.374 L 14.61 9.496 C 14.61 10.729 13.611 11.73 12.38 11.73 L 12.38 11.73 C 11.149 11.73 10.15 10.729 10.15 9.496 L 10.15 9.374 C 10.15 8.141 11.149 7.14 12.38 7.14 Z" style="stroke:none;fill:#FF9800;stroke-miterlimit:10;"/><path d=" M 27.702 18.142 C 27.702 20.743 25.648 22.855 23.119 22.855 C 20.59 22.855 18.537 20.743 18.537 18.142 C 18.537 15.541 20.59 13.429 23.119 13.429 L 23.119 18.142 L 27.702 18.142 Z " fill="rgb(255,152,0)"/><circle vector-effect="non-scaling-stroke" cx="20.893574096070218" cy="9.370317281365757" r="2.2256885166693507" fill="rgb(255,152,0)"/><path d=" M 23.119 15.916 L 22.465 15.916 L 22.465 18.928 L 25.345 18.928 L 25.345 18.142 C 24.117 18.142 23.119 17.145 23.119 15.916 L 23.119 15.916 Z " fill-rule="evenodd" fill="rgb(255,152,0)"/></g></g></svg>