<?xml version="1.0" encoding="UTF-8" standalone="no"?><!-- Generator: Gravit.io --><svg xmlns="http://www.w3.org/2000/svg" xmlns:xlink="http://www.w3.org/1999/xlink" style="isolation:isolate" viewBox="0 0 30 30" width="30pt" height="30pt"><defs><clipPath id="_clipPath_J3Ivwx1yQuO9BPGRuG3kjYHQ2CBAYLxA"><rect width="30" height="30"/></clipPath></defs><g clip-path="url(#_clipPath_J3Ivwx1yQuO9BPGRuG3kjYHQ2CBAYLxA)"><g><g><path d=" M 12.379 2.744 L 11.991 2.744 L 2.298 2.744 L 2.298 18.455 L 6.754 18.455 L 6.754 7.327 L 10.15 7.327 L 10.15 18.455 L 14.605 18.455 L 14.605 5.363 L 14.605 5.363 L 14.605 5.363 L 14.594 5.363 L 14.594 5.363 L 14.605 5.363 L 14.609 5.363 L 14.609 5.097 L 14.609 4.974 C 14.609 3.743 13.61 2.744 12.379 2.744 L 14.605 2.744 L 11.991 2.744 L 11.991 2.778 L 11.991 5.363 L 12.379 2.744 Z  M 12.379 2.744 L 14.609 2.744 L 12.379 2.744 Z  M 20.767 2.744 L 20.767 2.744 C 21.997 2.744 22.997 3.743 22.997 4.974 L 22.997 5.097 C 22.997 6.327 21.997 7.327 20.767 7.327 L 20.767 7.327 C 19.536 7.327 18.537 6.327 18.537 5.097 L 18.537 4.974 C 18.537 3.743 19.536 2.744 20.767 2.744 L 20.767 2.744 Z " fill-rule="evenodd" fill="rgb(255,152,0)"/><path d=" M 20.828 5.363 L 23.119 5.363 L 23.119 13.742 L 18.537 13.742 L 18.537 8.243 L 18.537 5.363 L 18.537 2.744 L 20.828 2.744 L 20.828 5.363 Z " fill-rule="evenodd" fill="rgb(255,152,0)"/><path d="M 12.38 2.74 L 12.38 2.74 C 13.611 2.74 14.61 3.741 14.61 4.974 L 14.61 5.096 C 14.61 6.329 13.611 7.33 12.38 7.33 L 12.38 7.33 C 11.149 7.33 10.15 6.329 10.15 5.096 L 10.15 4.974 C 10.15 3.741 11.149 2.74 12.38 2.74 Z" style="stroke:none;fill:#FF9800;stroke-miterlimit:10;"/><path d=" M 27.702 13.742 C 27.702 16.343 25.648 18.455 23.119 18.455 C 20.59 18.455 18.537 16.343 18.537 13.742 C 18.537 11.141 20.59 9.029 23.119 9.029 L 23.119 13.742 L 27.702 13.742 Z " fill="rgb(255,152,0)"/><circle vector-effect="non-scaling-stroke" cx="20.893574096070218" cy="4.970002899017556" r="2.2256885166693507" fill="rgb(255,152,0)"/><path d=" M 23.119 11.516 L 22.465 11.516 L 22.465 14.527 L 25.345 14.527 L 25.345 13.742 C 24.117 13.742 23.119 12.745 23.119 11.516 L 23.119 11.516 Z " fill-rule="evenodd" fill="rgb(255,152,0)"/></g><g clip-path="url(#_clipPath_7kn2VQPdeIBQafn9CXYrduYHTxF6njFA)"><text transform="matrix(1,0,0,1,2,24.285)" style="font-family:'Play';font-weight:700;font-size:5px;font-style:normal;fill:#ff9800;stroke:none;">Nabil_bali</text></g><defs><clipPath id="_clipPath_7kn2VQPdeIBQafn9CXYrduYHTxF6njFA"><rect x="0" y="0" width="27" height="5.785" transform="matrix(1,0,0,1,2,19.6)"/></clipPath></defs></g></g></svg>