<?xml version="1.0" encoding="UTF-8" standalone="no"?><!-- Generator: Gravit.io --><svg xmlns="http://www.w3.org/2000/svg" xmlns:xlink="http://www.w3.org/1999/xlink" style="isolation:isolate" viewBox="0 0 60 60" width="60pt" height="60pt"><defs><clipPath id="_clipPath_vGZy1aNiz52yLYqKyOuEU89aa9eRuDsM"><rect width="60" height="60"/></clipPath></defs><g clip-path="url(#_clipPath_vGZy1aNiz52yLYqKyOuEU89aa9eRuDsM)"><g/><g/><g/><g><mask id="_mask_xg3bXRZXsGFcS4mvorqFgRKDKaLsh3JT"><path d=" M 51.419 35 C 50.837 39.254 47.186 42.535 42.773 42.535 L 42.773 42.535 C 38.361 42.535 34.709 39.254 34.127 35 L 34.047 35 C 34.047 35 34.047 35 34.047 35 L 34.047 33.809 L 34.047 33.809 L 34.047 33.809 L 34.047 33.809 L 34.047 16.355 C 34.047 16.355 34.047 16.355 34.047 16.355 L 36.827 16.355 L 36.827 16.355 L 40.102 16.355 C 41.576 16.355 42.773 17.552 42.773 19.027 L 42.773 20.401 L 42.773 20.688 L 42.773 20.688 L 42.773 25.082 L 42.773 31.858 C 42.773 33.592 44.181 35 45.915 35 L 51.419 35 Z  M 38.355 26.283 L 38.355 26.283 L 38.355 24.973 L 38.355 24.973 L 38.355 26.283 L 38.355 26.283 Z " fill-rule="evenodd" fill="white" stroke="none"/></mask><path d=" M 51.419 35 C 50.837 39.254 47.186 42.535 42.773 42.535 L 42.773 42.535 C 38.361 42.535 34.709 39.254 34.127 35 L 34.047 35 C 34.047 35 34.047 35 34.047 35 L 34.047 33.809 L 34.047 33.809 L 34.047 33.809 L 34.047 33.809 L 34.047 16.355 C 34.047 16.355 34.047 16.355 34.047 16.355 L 36.827 16.355 L 36.827 16.355 L 40.102 16.355 C 41.576 16.355 42.773 17.552 42.773 19.027 L 42.773 20.401 L 42.773 20.688 L 42.773 20.688 L 42.773 25.082 L 42.773 31.858 C 42.773 33.592 44.181 35 45.915 35 L 51.419 35 Z  M 38.355 26.283 L 38.355 26.283 L 38.355 24.973 L 38.355 24.973 L 38.355 26.283 L 38.355 26.283 Z " fill-rule="evenodd" fill="rgb(255,152,0)"/><path d=" M 51.419 35 C 50.837 39.254 47.186 42.535 42.773 42.535 L 42.773 42.535 C 38.361 42.535 34.709 39.254 34.127 35 L 34.047 35 C 34.047 35 34.047 35 34.047 35 L 34.047 33.809 L 34.047 33.809 L 34.047 33.809 L 34.047 33.809 L 34.047 16.355 C 34.047 16.355 34.047 16.355 34.047 16.355 L 36.827 16.355 L 36.827 16.355 L 40.102 16.355 C 41.576 16.355 42.773 17.552 42.773 19.027 L 42.773 20.401 L 42.773 20.688 L 42.773 20.688 L 42.773 25.082 L 42.773 31.858 C 42.773 33.592 44.181 35 45.915 35 L 51.419 35 Z  M 38.355 26.283 L 38.355 26.283 L 38.355 24.973 L 38.355 24.973 L 38.355 26.283 L 38.355 26.283 Z " fill-rule="evenodd" fill="rgb(255,152,0)" mask="url(#_mask_xg3bXRZXsGFcS4mvorqFgRKDKaLsh3JT)" vector-effect="non-scaling-stroke" stroke-width="2" stroke="rgb(255,152,0)" stroke-linejoin="miter" stroke-linecap="square" stroke-miterlimit="3"/><g><mask id="_mask_qmAXPYmguml9QeofyyArm3by3CYhSduD"><rect x="21.611" y="20.719" width="8.509" height="21.817" fill="white" stroke="none"/></mask><rect x="21.611" y="20.719" width="8.509" height="21.817" transform="matrix(1,0,0,1,0,0)" fill="rgb(255,152,0)"/><rect x="21.611" y="20.719" width="8.509" height="21.817" transform="matrix(1,0,0,1,0,0)" fill="rgb(255,152,0)" mask="url(#_mask_qmAXPYmguml9QeofyyArm3by3CYhSduD)" vector-effect="non-scaling-stroke" stroke-width="2" stroke="rgb(255,152,0)" stroke-linejoin="miter" stroke-linecap="square" stroke-miterlimit="2"/><mask id="_mask_jxkBpGuY8fyJcs6MFoibb3BMZ52Fw6yG"><rect x="8.5" y="16.355" width="8.509" height="26.18" fill="white" stroke="none"/></mask><rect x="8.5" y="16.355" width="8.509" height="26.18" transform="matrix(1,0,0,1,0,0)" fill="rgb(255,152,0)"/><rect x="8.5" y="16.355" width="8.509" height="26.18" transform="matrix(1,0,0,1,0,0)" fill="rgb(255,152,0)" mask="url(#_mask_jxkBpGuY8fyJcs6MFoibb3BMZ52Fw6yG)" vector-effect="non-scaling-stroke" stroke-width="2" stroke="rgb(255,152,0)" stroke-linejoin="miter" stroke-linecap="square" stroke-miterlimit="2"/><mask id="_mask_7bj7QyPnArQhak8hdKsMMK5DeK340QQ3"><rect x="8.5" y="16.355" width="17.365" height="8.727" fill="white" stroke="none"/></mask><rect x="8.5" y="16.355" width="17.365" height="8.727" transform="matrix(1,0,0,1,0,0)" fill="rgb(255,152,0)"/><rect x="8.5" y="16.355" width="17.365" height="8.727" transform="matrix(1,0,0,1,0,0)" fill="rgb(255,152,0)" mask="url(#_mask_7bj7QyPnArQhak8hdKsMMK5DeK340QQ3)" vector-effect="non-scaling-stroke" stroke-width="2" stroke="rgb(255,152,0)" stroke-linejoin="miter" stroke-linecap="square" stroke-miterlimit="2"/><path d="M 25.865 16.36 L 25.865 16.36 C 28.213 16.36 30.12 18.265 30.12 20.611 L 30.12 20.829 C 30.12 23.175 28.213 25.08 25.865 25.08 L 25.865 25.08 C 23.517 25.08 21.61 23.175 21.61 20.829 L 21.61 20.611 C 21.61 18.265 23.517 16.36 25.865 16.36 Z" style="stroke:none;fill:#FF9800;stroke-miterlimit:10;"/><path d="M 25.865 16.36 L 25.865 16.36 C 28.213 16.36 30.12 18.265 30.12 20.611 L 30.12 20.829 C 30.12 23.175 28.213 25.08 25.865 25.08 L 25.865 25.08 C 23.517 25.08 21.61 23.175 21.61 20.829 L 21.61 20.611 C 21.61 18.265 23.517 16.36 25.865 16.36 Z" style="fill:none;stroke:#000000;stroke-width:2;stroke-linecap:square;stroke-miterlimit:2;"/></g></g></g></svg>